<?xml version="1.0" standalone="no"?>
<!DOCTYPE svg PUBLIC "-//W3C//DTD SVG 1.1//EN"
"http://www.w3.org/Graphics/SVG/1.1/DTD/svg11.dtd">
<svg width="800" height="600" version="1.1" xmlns="http://www.w3.org/2000/svg"><g><rect x="0" y="0" width="800" height="600" fill="#f9f9f9" /><g transform="translate(40 40)"><g transform="translate(16 0)"><text x="0" y="0" fill="#333" font-family="Monaco" font-size="16">Simple pairs of x-y</text></g><g transform="translate(0 20)"><g transform="translate(16 0)"><g class="axis bottom"><g class="tick"><line x1="234.6666666666666666666666666" y1="0" x2="234.6666666666666666666666666" y2="482.0" stroke="#eee" stroke-width="1" /><text x="234.6666666666666666666666666" y="486.0" dy="1em" fill="#9c9c9c" text-anchor="middle" font-family="Monaco">2.5</text></g><g class="tick"><line x1="469.3333333333333333333333334" y1="0" x2="469.3333333333333333333333334" y2="482.0" stroke="#eee" stroke-width="1" /><text x="469.3333333333333333333333334" y="486.0" dy="1em" fill="#9c9c9c" text-anchor="middle" font-family="Monaco">5</text></g><g class="tick"><line x1="704" y1="0" x2="704" y2="482.0" stroke="#eee" stroke-width="1" /><text x="704" y="486.0" dy="1em" fill="#9c9c9c" text-anchor="middle" font-family="Monaco">7.5</text></g><g class="tick"><line x1="0" y1="0" x2="0" y2="482.0" stroke="#a8a8a8" stroke-width="1" /><text x="0" y="486.0" dy="1em" fill="#9c9c9c" text-anchor="middle" font-family="Monaco">0</text></g></g><g class="axis left"><g class="tick"><line x1="-4" y1="478" x2="704.0" y2="478" stroke="#eee" stroke-width="1" /><text x="-8" y="478" dy="0.32em" fill="#9c9c9c" text-anchor="end" font-family="Monaco">2</text></g><g class="tick"><line x1="-4" y1="358.50" x2="704.0" y2="358.50" stroke="#eee" stroke-width="1" /><text x="-8" y="358.50" dy="0.32em" fill="#9c9c9c" text-anchor="end" font-family="Monaco">3</text></g><g class="tick"><line x1="-4" y1="239.0" x2="704.0" y2="239.0" stroke="#eee" stroke-width="1" /><text x="-8" y="239.0" dy="0.32em" fill="#9c9c9c" text-anchor="end" font-family="Monaco">4</text></g><g class="tick"><line x1="-4" y1="119.50" x2="704.0" y2="119.50" stroke="#eee" stroke-width="1" /><text x="-8" y="119.50" dy="0.32em" fill="#9c9c9c" text-anchor="end" font-family="Monaco">5</text></g><g class="tick"><line x1="-4" y1="0" x2="704.0" y2="0" stroke="#eee" stroke-width="1" /><text x="-8" y="0" dy="0.32em" fill="#9c9c9c" text-anchor="end" font-family="Monaco">6</text></g></g><g><g class="series dots"><circle cx="140.8" cy="478" r="3" fill="#e41a1c" /><circle cx="187.7333333333333333333333334" cy="358.50" r="3" fill="#e41a1c" /><circle cx="422.4" cy="0" r="3" fill="#e41a1c" /><circle cx="704" cy="239.0" r="3" fill="#e41a1c" /></g></g></g></g></g></g></svg>